<svg xmlns="http://www.w3.org/2000/svg" width="24" height="24" fill="none" viewBox="0 0 24 24" id="question-mark"><path fill="url(#paint0_linear_201_6493)" d="M20 1H4C3.20435 1 2.44129 1.31607 1.87868 1.87868C1.31607 2.44129 1 3.20435 1 4V20C1 20.7956 1.31607 21.5587 1.87868 22.1213C2.44129 22.6839 3.20435 23 4 23H20C20.7956 23 21.5587 22.6839 22.1213 22.1213C22.6839 21.5587 23 20.7956 23 20V4C23 3.20435 22.6839 2.44129 22.1213 1.87868C21.5587 1.31607 20.7956 1 20 1ZM21 20C21 20.2652 20.8946 20.5196 20.7071 20.7071C20.5196 20.8946 20.2652 21 20 21H4C3.73478 21 3.48043 20.8946 3.29289 20.7071C3.10536 20.5196 3 20.2652 3 20V4C3 3.73478 3.10536 3.48043 3.29289 3.29289C3.48043 3.10536 3.73478 3 4 3H20C20.2652 3 20.5196 3.10536 20.7071 3.29289C20.8946 3.48043 21 3.73478 21 4V20ZM13 18C13 18.2652 12.8946 18.5196 12.7071 18.7071C12.5196 18.8946 12.2652 19 12 19C11.7348 19 11.4804 18.8946 11.2929 18.7071C11.1054 18.5196 11 18.2652 11 18C11 17.7348 11.1054 17.4804 11.2929 17.2929C11.4804 17.1054 11.7348 17 12 17C12.2652 17 12.5196 17.1054 12.7071 17.2929C12.8946 17.4804 13 17.7348 13 18ZM15.94 8.31C16.1054 9.21134 15.9562 10.1421 15.5176 10.9467C15.0789 11.7512 14.3772 12.3808 13.53 12.73C13.365 12.8084 13.2267 12.9337 13.1325 13.0902C13.0382 13.2467 12.9921 13.4275 13 13.61V14C13 14.2652 12.8946 14.5196 12.7071 14.7071C12.5196 14.8946 12.2652 15 12 15C11.7348 15 11.4804 14.8946 11.2929 14.7071C11.1054 14.5196 11 14.2652 11 14V13.58C10.9887 13.0015 11.1502 12.4329 11.4637 11.9466C11.7772 11.4603 12.2285 11.0785 12.76 10.85C13.0952 10.7123 13.3867 10.4861 13.6034 10.1955C13.82 9.90495 13.9536 9.561 13.9899 9.2004C14.0262 8.8398 13.9639 8.47611 13.8095 8.14821C13.6552 7.8203 13.4146 7.5405 13.1136 7.33871C12.8125 7.13692 12.4623 7.02073 12.1003 7.00254C11.7384 6.98436 11.3783 7.06488 11.0585 7.23549C10.7388 7.4061 10.4714 7.66039 10.2849 7.97118C10.0985 8.28197 10 8.63758 10 9C10 9.26522 9.89464 9.51957 9.70711 9.70711C9.51957 9.89464 9.26522 10 9 10C8.73478 10 8.48043 9.89464 8.29289 9.70711C8.10536 9.51957 8 9.26522 8 9C8.00075 8.41652 8.12914 7.84027 8.37617 7.31166C8.6232 6.78305 8.98289 6.31489 9.43 5.94C9.96589 5.48905 10.6108 5.18672 11.3002 5.06323C11.9896 4.93975 12.6994 4.99945 13.3585 5.23636C14.0176 5.47327 14.6029 5.87909 15.0559 6.41322C15.509 6.94735 15.8138 7.59107 15.94 8.28V8.31Z"></path><defs><linearGradient id="paint0_linear_201_6493" x1="12" x2="12" y1="1" y2="23" gradientUnits="userSpaceOnUse"><stop stop-color="#9CFFAC"></stop><stop offset="1" stop-color="#00B59C"></stop></linearGradient></defs></svg>